Coordinates
version=1
nRows=24
nColumns=24
inDegrees=yes

Units are S.I. units (second, meters, Newtons, ...)
Angles are in degrees.

endheader
time	pelvis_tilt	pelvis_list	pelvis_rotation	pelvis_tx	pelvis_ty	pelvis_tz	hip_flexion_r	hip_adduction_r	hip_rotation_r	knee_angle_r	ankle_angle_r	subtalar_angle_r	mtp_angle_r	hip_flexion_l	hip_adduction_l	hip_rotation_l	knee_angle_l	ankle_angle_l	subtalar_angle_l	mtp_angle_l	lumbar_extension	lumbar_bending	lumbar_rotation
      4.54500000	    -20.84924415	     11.65948243	     -4.78551577	     -2.25174372	     -0.04692919	     -0.27457875	     16.71847687	    -11.12997435	      0.87233084	    -55.62212569	    -42.36393692	    -14.69946630	     12.65261643	     46.46596320	     13.35558092	      1.70823729	    -27.24814630	     14.45339334	      7.76528276	    -71.60536388	     13.15614489	    -11.26136244	     10.04976179
      4.55000000	    -20.86845535	     11.72744545	     -4.69830483	     -2.24390765	     -0.04558954	     -0.27498815	     17.99645083	    -10.94532986	      1.16503176	    -57.43440410	    -40.91370727	    -16.65599029	      9.27863094	     45.66566539	     13.48608483	      1.44279228	    -26.86720445	     15.24855938	      8.50402243	    -71.71589181	     13.15786973	    -11.26461398	      9.80183904
      4.55500000	    -20.91307806	     11.66433220	     -4.60276528	     -2.23618737	     -0.04418664	     -0.27531877	     19.25537095	    -10.56573587	      1.47398034	    -59.07489953	    -39.47170256	    -18.55307412	      6.43084034	     44.89428131	     13.47403296	      1.12619765	    -26.52558232	     16.06559535	      9.41009204	    -71.82810338	     13.16542474	    -11.14100544	      9.49249467
      4.56000000	    -20.83902151	     11.76969025	     -4.60299776	     -2.22833657	     -0.04251067	     -0.27557029	     20.45157153	    -10.35623660	      1.86282633	    -60.69294713	    -37.52213607	    -20.00087531	      2.29001480	     43.87378750	     13.61506052	      0.94919935	    -25.89944745	     16.68778552	      9.95680607	    -72.10301234	     13.10477101	    -11.17517909	      9.33845689
      4.56500000	    -20.85911969	     11.69284440	     -4.57081157	     -2.22074100	     -0.04092321	     -0.27577260	     21.69823057	     -9.89124869	      2.27387692	    -62.12611644	    -35.87595835	    -21.41558188	     -0.52522601	     43.01488052	     13.55334248	      0.65459897	    -25.42488120	     17.38187673	     10.80332049	    -72.25231030	     13.08392166	    -11.02632855	      9.09295869
      4.57000000	    -20.76320378	     11.73176122	     -4.59157403	     -2.21292102	     -0.03905881	     -0.27590738	     22.82085813	     -9.55350425	      2.69805810	    -63.46383920	    -33.87814642	    -22.46924891	     -4.36808425	     41.90285543	     13.63123023	      0.53802043	    -24.68644649	     17.88441262	     11.28634681	    -72.51558023	     13.00323660	    -10.99670818	      8.93369291
      4.57500000	    -20.75804119	     11.65770036	     -4.58755611	     -2.20526170	     -0.03728147	     -0.27600694	     24.00143665	     -9.05572061	      3.15318923	    -64.64553247	    -32.14648678	    -23.37547824	     -6.97082390	     40.93187726	     13.57111346	      0.30746875	    -24.05105498	     18.40740832	     11.99156783	    -72.67007882	     12.98596413	    -10.85395311	      8.69967295
      4.58000000	    -20.65680697	     11.62198065	     -4.60618074	     -2.19752982	     -0.03531667	     -0.27612971	     25.06653669	     -8.62336649	      3.56691362	    -65.71588180	    -30.31873224	    -24.09651801	     -9.94190191	     39.77396271	     13.60135831	      0.31244304	    -23.24780173	     18.78415473	     12.36799316	    -72.89069483	     12.88400597	    -10.75154520	      8.54739595
      4.58500000	    -20.57776529	     11.56356461	     -4.64875019	     -2.18982397	     -0.03334269	     -0.27624330	     26.10339141	     -8.14358403	      4.11330506	    -66.56678304	    -29.17500819	    -24.85010180	     -9.96857778	     38.63390702	     13.58427581	      0.24577756	    -22.42761358	     19.08703006	     12.79097401	    -72.87311014	     12.81200800	    -10.61772099	      8.40704889
      4.59000000	    -20.55936409	     11.42399987	     -4.58939021	     -2.18214638	     -0.03142849	     -0.27635829	     27.19332840	     -7.62498902	      4.38916853	    -67.44292554	    -27.16765641	    -25.05314581	    -13.11435215	     37.53965038	     13.53933499	      0.32251134	    -21.60521666	     19.41033811	     13.19870582	    -73.25889160	     12.77739433	    -10.42608653	      8.13366971
      4.59500000	    -20.47029704	     11.29978668	     -4.63254127	     -2.17445108	     -0.02938433	     -0.27638451	     28.16290257	     -7.09408488	      4.83683999	    -68.06507064	    -26.06485980	    -25.54542585	    -12.94723257	     36.34372050	     13.46284905	      0.32612009	    -20.71174374	     19.61599530	     13.56178348	    -73.23984414	     12.69411153	    -10.23594093	      7.99305029
      4.60000000	    -20.41823523	     11.12192040	     -4.61772767	     -2.16675782	     -0.02737820	     -0.27647213	     29.12674044	     -6.55226655	      5.18316102	    -68.58531799	    -24.84599913	    -25.77492419	    -12.69786773	     35.16427358	     13.36997683	      0.44124260	    -19.79151573	     19.76673285	     13.87006411	    -73.25246991	     12.63851969	    -10.00075183	      7.78214990
      4.60500000	    -20.35251930	     10.94373274	     -4.58441889	     -2.15908091	     -0.02535999	     -0.27654003	     30.05304628	     -6.04368675	      5.47725969	    -69.00772428	    -23.57591717	    -25.81573515	    -12.29203786	     33.94480384	     13.28884959	      0.61731516	    -18.81125394	     19.82984463	     14.11665683	    -73.30712742	     12.56555398	     -9.78227485	      7.53380811
      4.61000000	    -20.29254932	     10.70077184	     -4.53979377	     -2.15140381	     -0.02334290	     -0.27660841	     30.93663901	     -5.49642777	      5.70230278	    -69.29594924	    -22.31439679	    -25.72801234	    -11.63589942	     32.71390138	     13.15290634	      0.87270201	    -17.81276795	     19.86289465	     14.30634277	    -73.37804858	     12.49517450	     -9.50210304	      7.27757933
      4.61500000	    -20.27043113	     10.40269227	     -4.44498855	     -2.14373166	     -0.02132067	     -0.27695192	     31.76400146	     -4.96967786	      5.94999983	    -69.28726039	    -22.04994264	    -26.01188402	     -7.07586405	     31.46721952	     13.02964432	      1.47560780	    -16.71559040	     19.78693752	     14.15246411	    -73.73552323	     12.45373558	     -9.14748967	      6.99245714
      4.62000000	    -20.21976843	     10.11982326	     -4.45052401	     -2.13613957	     -0.01937221	     -0.27695920	     32.58902008	     -4.39280037	      6.24937468	    -69.26290354	    -21.32411967	    -25.91659984	     -3.83980343	     30.25173547	     12.81255062	      1.71585201	    -15.69899753	     19.72155278	     14.30291942	    -73.60922618	     12.39610464	     -8.81874589	      6.80041505
      4.62500000	    -20.20257051	      9.73146687	     -4.33468738	     -2.12853503	     -0.01747162	     -0.27698570	     33.39912882	     -3.79808608	      6.24463015	    -69.19357769	    -20.06197459	    -25.50717465	     -3.07318616	     29.08410159	     12.53066524	      2.05849919	    -14.74275231	     19.67548250	     14.49835911	    -73.64281982	     12.35206452	     -8.42448268	      6.44860926
      4.63000000	    -20.21857865	      9.33012620	     -4.18880688	     -2.12095460	     -0.01559194	     -0.27731970	     34.16933380	     -3.26169260	      6.30610312	    -68.83052879	    -19.78441525	    -25.57578940	      1.28696967	     27.86223428	     12.30721345	      3.01005275	    -13.61173988	     19.38603644	     14.05124380	    -73.62861128	     12.33903548	     -7.99233188	      6.10798221
      4.63500000	    -20.20587145	      8.95237504	     -4.11252899	     -2.11342617	     -0.01380416	     -0.27737202	     34.92571147	     -2.70280134	      6.39870100	    -68.46278893	    -19.08515383	    -25.22840651	      4.20817669	     26.71325756	     12.01055181	      3.45526352	    -12.63795315	     19.20572962	     14.03395606	    -73.54727722	     12.30824713	     -7.59779101	      5.83138478
      4.64000000	    -20.17535976	      8.57232422	     -4.02463138	     -2.10587436	     -0.01207093	     -0.27736311	     35.64447178	     -2.17159925	      6.39757091	    -68.05233226	    -18.13512642	    -24.65009560	      5.74553340	     25.56449289	     11.69993454	      3.86568272	    -11.69398577	     19.02003535	     14.05131617	    -73.52339308	     12.26570216	     -7.21884124	      5.59487478
      4.64500000	    -20.17723413	      8.15862667	     -3.84211779	     -2.09837584	     -0.01042785	     -0.27751831	     36.34284295	     -1.68120017	      6.33188671	    -67.49649970	    -17.49077521	    -24.18261850	      8.01098739	     24.45203662	     11.40019402	      4.57554126	    -10.75941119	     18.75502327	     13.84193397	    -73.43467246	     12.23889737	     -6.82185645	      5.18400023
      4.65000000	    -20.27107373	      7.69860706	     -3.55348091	     -2.09095747	     -0.00895908	     -0.27773204	     37.08929357	     -1.21458345	      6.14900528	    -66.79209655	    -17.22334850	    -24.03502822	     10.81231000	     23.52614675	     11.05604439	      5.20004438	     -9.98948783	     18.55124318	     13.87908892	    -73.19617160	     12.29265034	     -6.40945661	      4.69425728
      4.65500000	    -20.31319736	      7.26746730	     -3.25951140	     -2.08349151	     -0.00753424	     -0.27783132	     37.77688615	     -0.80148361	      5.88950548	    -66.12112219	    -16.44614814	    -23.41048016	     11.40971609	     22.62652912	     10.71610747	      5.45248329	     -9.35135038	     18.44511740	     14.21869636	    -73.19185896	     12.30820201	     -6.04835430	      4.23517273
      4.66000000	    -20.30795593	      6.96282426	     -3.03793495	     -2.07604185	     -0.00617108	     -0.27803506	     38.41416927	     -0.49343521	      5.84587307	    -65.33823775	    -16.02020589	    -22.91338057	     13.46696388	     21.55057059	     10.51164851	      6.30299915	     -8.43758809	     18.01406356	     13.75373753	    -73.06704191	     12.28760292	     -5.78331867	      3.89479991
